<svg width="23" height="23" viewBox="0 0 23 23" fill="none" xmlns="http://www.w3.org/2000/svg">
<path d="M13.5 13.5L19.2102 13.8005C21.3347 13.9124 23 15.6676 23 17.795V19C23 21.2091 21.2091 23 19 23H17.795C15.6676 23 13.9124 21.3347 13.8005 19.2102L13.5 13.5Z" fill="black"/>
<path d="M9.5 9.5L3.78976 9.19946C1.66526 9.08765 0 7.33243 0 5.20499V4C0 1.79086 1.79086 0 4 0H5.20499C7.33243 0 9.08765 1.66527 9.19946 3.78977L9.5 9.5Z" fill="black"/>
<path d="M13.5 9.5L13.8005 3.78976C13.9124 1.66526 15.6676 0 17.795 0H19C21.2091 0 23 1.79086 23 4V5.20499C23 7.33243 21.3347 9.08765 19.2102 9.19946L13.5 9.5Z" fill="black"/>
<path d="M9.5 13.5L9.19946 19.2102C9.08765 21.3347 7.33243 23 5.20499 23H4C1.79086 23 0 21.2091 0 19V17.795C0 15.6676 1.66527 13.9124 3.78977 13.8005L9.5 13.5Z" fill="black"/>
</svg>
